<?xml version="1.0" encoding="UTF-8"?>
<!DOCTYPE svg PUBLIC "-//W3C//DTD SVG 1.1//EN" "http://www.w3.org/Graphics/SVG/1.1/DTD/svg11.dtd">
<!-- Creator: CorelDRAW -->
<svg xmlns="http://www.w3.org/2000/svg" xml:space="preserve" width="67.2456mm" height="43.6732mm" version="1.1" style="shape-rendering:geometricPrecision; text-rendering:geometricPrecision; image-rendering:optimizeQuality; fill-rule:evenodd; clip-rule:evenodd"
viewBox="0 0 7136.81 4635.06"
 xmlns:xlink="http://www.w3.org/1999/xlink"
 xmlns:xodm="http://www.corel.com/coreldraw/odm/2003">
 <defs>
  <style type="text/css">
   <![CDATA[
    .fil0 {fill:#060607}
   ]]>
  </style>
 </defs>
 <g id="Capa_x0020_1">
  <metadata id="CorelCorpID_0Corel-Layer"/>
  <path class="fil0" d="M931.89 476.57c0,-108.69 84.08,-162.42 194.92,-162.42l430.44 0c269.47,0 242.74,308.62 24.36,308.62l-479.17 0c-89.21,0 -170.55,-62.9 -170.55,-146.19zm5146.21 698.06c100.36,0 181.71,81.35 181.71,181.71 0,100.36 -81.35,181.71 -181.71,181.71 -100.36,0 -181.71,-81.35 -181.71,-181.71 0,-100.36 81.35,-181.71 181.71,-181.71zm-2263.04 2534.33l173.15 -281.65c53.46,-95 101.55,-215.22 132.04,-322.77 149.82,-528.51 130.77,-1041.7 -115.69,-1534.27 -76.5,-152.89 -251.08,-433.96 -387.49,-530.24 -102.14,-72.11 -210.92,82.05 -266.14,150.03 -71.77,88.32 -126.17,169.44 -186.06,268.75 -125,207.27 -196.48,427.22 -245.49,672.24 -15.58,77.9 -11.85,134.52 45.71,170.08 61.63,38.07 138.31,-4.33 156.82,-48.77 23.3,-55.89 24.72,-126.19 40.14,-187.26 57.17,-226.32 149.55,-446.13 286.28,-631.47 24.04,-32.58 78.21,-109.49 106.85,-128.68 86.64,58.02 209.86,289.85 254.47,379.01 70.58,141.05 126.17,295.57 156.27,477.22 63.04,380.48 6.83,732.45 -138.02,1081.41 -36.9,88.88 -112.47,224.32 -173.11,299.82 -35.82,44.61 -25.41,-19.32 -37.98,-81.88 -53.57,-266.59 -142.2,-467.22 -272.32,-686.04 -76.32,-128.34 -173.04,-249.61 -278.62,-354.85l-170.62 -154.25c-26.03,-23.33 -59.88,-47.75 -87.3,-67.01 -83.06,-58.34 -202.78,-139.91 -297.97,-181.2 -77.37,-33.55 -140.82,-64.18 -224.81,-91.94 -166.39,-55.01 -350.77,-103.47 -532.7,-108.89 -121.34,-3.62 -206.49,-10.05 -218.83,98.45 -38.18,335.86 108.91,751.49 259.52,1014.12 23.71,41.35 95.05,162.32 133.15,183.61 42.4,23.69 98.97,11.02 126.18,-12.91 24.49,-21.52 51.14,-67.09 36.51,-116.71 -10.84,-36.73 -91.79,-153.19 -119.09,-198.25 -113.26,-186.98 -217.71,-507.83 -217.71,-740.63 345.41,0 733.83,179.93 996.4,392.39 113.26,91.64 206.34,191.23 297.48,303.51 157.48,194 267.36,425.19 328.79,670.15 10.98,43.8 33.11,123.27 34.12,168.93 -26.71,-7.14 -169.04,-106.89 -199.48,-125.37 -71.12,-43.17 -138.97,-72.3 -217.48,-107.39 -478.38,-213.83 -1155.01,-215.36 -1624.26,10.76 -220.7,112.63 -406.44,215.31 -584.21,390.39 -119.12,117.31 19.91,211.8 101.5,292.67 76.49,75.81 192.79,146.4 285.78,201.52 105.67,62.64 218.68,110.41 332.98,154.3 38.56,14.81 92.81,20.57 126.55,44 -120.54,0 -1306.69,9.97 -1362.82,-1.59 -90.71,-18.68 -66.58,-140.25 -66.58,-209.57l0 -2753.22c0,-187.89 14.62,-281.56 121.66,-422.48 73.33,-96.55 202.52,-175.44 352.47,-199.79 83.89,-13.62 991.84,-3.11 1101.45,-3.08 643.3,0.16 779.55,-346.39 916.53,-456.02 27.6,-22.1 46.43,-40.15 77.43,-60.63 194.34,-128.42 322.1,-133.08 557.26,-133.08 181.38,0 362.76,0 544.14,0 216.17,0 365.25,30.51 532.74,157.59 53.07,40.27 95.23,85.4 138.84,137.3 26.07,31.03 37.01,44.05 65.44,72.61 226.84,227.8 476.52,282.22 814.2,282.22 188.33,0 971.22,-15.03 1091.63,12.89 212.57,49.3 367.21,201.46 414.22,406.07 27.92,121.55 12.89,667.61 12.89,815.52l0 2200.96c0.28,103.67 -5.53,155.59 -121.62,154.52l-828.61 -0.22 8.12 194.92c240.94,0 481.89,0 722.82,0 183.05,0 315.42,6.55 389.96,-154.18 25.39,-54.73 24.35,-83.13 24.25,-162.56l-0.01 -2907.53c0.05,-198.64 -80.91,-443.39 -243.62,-568.52 -54.98,-42.28 -99.52,-78.19 -165.13,-111.01 -75.51,-37.77 -180.64,-75.96 -289.42,-76.04 -241.01,-0.2 -482.08,0.28 -723.1,0.28 -304.71,0 -576.99,31.96 -804.53,-105.09 -219.07,-131.95 -301.39,-341.57 -547.04,-451.91 -294.25,-132.19 -563.78,-92.73 -906.23,-92.73 -258.78,0 -413.37,-21.74 -649.99,80.96 -301.12,130.7 -358.5,358.16 -611.48,484.94 -69.09,34.62 -190.47,75.71 -289.76,75.71 20.22,-86.79 55.65,-140.16 34.96,-246.13 -16.75,-85.79 -55,-135.44 -105.9,-186.48 -116.88,-117.2 -274.4,-95.29 -497.57,-95.29 -229.4,0 -372.91,-21.62 -493.48,99.4 -96.74,97.1 -138.44,247.88 -83.42,380.03 7.92,19.03 19.81,38.56 24.63,56.59 -240.97,0 -364.7,54.99 -536.04,186.78 -131.51,101.14 -239.29,318.94 -243.91,487.03 -13.1,476.78 0.28,974.85 0.28,1454.04 0,484.58 0,969.17 0,1453.76 0,176.59 -1.02,306.7 159.81,376.22 59.36,25.65 85.34,21.79 165.05,21.74l1453.76 0c313.03,0 512.63,-52.57 764.29,-145.32 114.21,-42.1 210.05,-44.81 416.87,-127.27 94.15,-37.54 161.52,-74.16 245.66,-119.82 42.11,-22.85 69.57,-46.16 68.54,-111.17 -0.94,-59.66 -36.97,-96.18 -83.95,-104.2 -78.45,-13.4 -179.56,70.16 -253.44,100.83 -499.48,207.36 -980.85,227.06 -1491.18,3.64 -123.25,-53.95 -365.55,-183.9 -438.34,-292.6 468.51,-313.73 664.95,-428.19 1259.04,-430.62 279.22,-1.15 580.22,98.67 819.74,236.07 43.48,24.94 88.31,51.88 129.07,82.09 193.26,147.81 196.89,179.12 355.11,302.73 129.57,101.25 251.99,193.9 404.12,269.96 722.44,361.23 1734.76,267.35 2313.96,-320.13 49.72,-50.42 100.22,-69.53 86.08,-154.48 -6.42,-38.61 -24.42,-48.26 -49.5,-72.93 -268.87,-264.59 -586.19,-426.64 -951.42,-518.59 -44.95,-11.31 -158.75,-37.62 -214.47,-25.98 -53.66,11.23 -98.83,87.87 -64.64,158.89 29.42,61.11 102.62,59.36 170.7,72.96 135.05,26.99 253.19,63.29 376.86,118.56 65.34,29.2 102.31,49.14 162.5,81.14 62.71,33.36 254.97,160.69 286.96,208.47 -65.23,97.41 -352.18,246.99 -465.7,297.73 -449.55,200.95 -989.6,193.14 -1431.37,7.51 -95.95,-40.31 -325.63,-151.36 -368.85,-215.91 47.25,-1.05 139.67,-22.77 185.27,-34 734.18,-180.95 1287.79,-731.53 1498.78,-1457.48 17.43,-59.95 29.54,-121.07 41.25,-186.15 14.2,-78.86 52.07,-342.55 6.3,-403.19 -41.96,-55.63 -97.42,-38.72 -188.7,-39.09 -358.53,-1.46 -751.64,160.42 -1023.12,341.29 -44.74,29.81 -100.31,54.54 -105.11,122.8 -4.36,61.91 49.13,118.87 105.33,121.14 55.46,2.24 232.39,-126.45 294.82,-160.06 162.16,-87.31 468.44,-197.58 712.03,-197.58 0,48.69 -12.06,125.29 -20.84,174.08 -28.12,156.26 -74.1,317.49 -144.28,456.71 -79.06,156.85 -160.33,294 -275.33,423.12 -20.03,22.48 -25.77,34.01 -48.79,56.78 -71.53,70.71 -129.11,126.8 -208.09,189.88 -154.53,123.41 -325.4,219.22 -517.76,286.28 -75.49,26.32 -237.82,78.08 -328,78.08z"/>
 </g>
</svg>
